<svg width="266" height="40" viewBox="0 0 266 40" fill="none" xmlns="http://www.w3.org/2000/svg">
    <rect x="0.5" y="0.5" width="134" height="39" rx="4.5" fill="white"/>
    <path d="M68.136 21.7511C65.784 21.7511 63.867 23.5401 63.867 26.0041C63.867 28.4531 65.784 30.2571 68.136 30.2571C70.489 30.2571 72.406 28.4531 72.406 26.0041C72.405 23.5401 70.488 21.7511 68.136 21.7511ZM68.136 28.5831C66.847 28.5831 65.736 27.5201 65.736 26.0051C65.736 24.4741 66.848 23.4271 68.136 23.4271C69.425 23.4271 70.536 24.4741 70.536 26.0051C70.536 27.5191 69.425 28.5831 68.136 28.5831ZM58.822 21.7511C56.47 21.7511 54.553 23.5401 54.553 26.0041C54.553 28.4531 56.47 30.2571 58.822 30.2571C61.175 30.2571 63.092 28.4531 63.092 26.0041C63.092 23.5401 61.175 21.7511 58.822 21.7511ZM58.822 28.5831C57.533 28.5831 56.422 27.5201 56.422 26.0051C56.422 24.4741 57.534 23.4271 58.822 23.4271C60.111 23.4271 61.222 24.4741 61.222 26.0051C61.223 27.5191 60.111 28.5831 58.822 28.5831ZM47.744 23.0571V24.8611H52.062C51.933 25.8761 51.595 26.6171 51.079 27.1321C50.451 27.7601 49.468 28.4531 47.744 28.4531C45.086 28.4531 43.008 26.3101 43.008 23.6521C43.008 20.9941 45.086 18.8511 47.744 18.8511C49.178 18.8511 50.225 19.4151 50.998 20.1401L52.271 18.8671C51.191 17.8361 49.758 17.0471 47.744 17.0471C44.103 17.0471 41.042 20.0111 41.042 23.6521C41.042 27.2931 44.103 30.2571 47.744 30.2571C49.709 30.2571 51.192 29.6121 52.351 28.4041C53.543 27.2121 53.914 25.5361 53.914 24.1831C53.914 23.7651 53.882 23.3781 53.817 23.0561H47.744V23.0571ZM93.052 24.4581C92.698 23.5081 91.618 21.7511 89.411 21.7511C87.22 21.7511 85.399 23.4751 85.399 26.0041C85.399 28.3881 87.204 30.2571 89.62 30.2571C91.569 30.2571 92.697 29.0651 93.165 28.3721L91.715 27.4051C91.232 28.1141 90.571 28.5811 89.62 28.5811C88.67 28.5811 87.993 28.1461 87.558 27.2921L93.245 24.9401L93.052 24.4581ZM87.252 25.8761C87.204 24.2321 88.525 23.3951 89.476 23.3951C90.217 23.3951 90.845 23.7661 91.055 24.2971L87.252 25.8761ZM82.629 30.0001H84.497V17.4991H82.629V30.0001ZM79.567 22.7021H79.503C79.084 22.2021 78.278 21.7511 77.264 21.7511C75.137 21.7511 73.188 23.6201 73.188 26.0211C73.188 28.4051 75.137 30.2581 77.264 30.2581C78.279 30.2581 79.084 29.8071 79.503 29.2921H79.567V29.9041C79.567 31.5311 78.697 32.4011 77.296 32.4011C76.152 32.4011 75.443 31.5801 75.153 30.8871L73.526 31.5641C73.993 32.6911 75.233 34.0771 77.296 34.0771C79.487 34.0771 81.34 32.7881 81.34 29.6461V22.0101H79.568V22.7021H79.567ZM77.425 28.5831C76.136 28.5831 75.057 27.5031 75.057 26.0211C75.057 24.5221 76.136 23.4271 77.425 23.4271C78.697 23.4271 79.696 24.5221 79.696 26.0211C79.696 27.5031 78.697 28.5831 77.425 28.5831ZM101.806 17.4991H97.335V30.0001H99.2V25.2641H101.805C103.873 25.2641 105.907 23.7671 105.907 21.3821C105.907 18.9971 103.874 17.4991 101.806 17.4991ZM101.854 23.5241H99.2V19.2391H101.854C103.249 19.2391 104.041 20.3941 104.041 21.3821C104.041 22.3501 103.249 23.5241 101.854 23.5241ZM113.386 21.7291C112.035 21.7291 110.636 22.3241 110.057 23.6431L111.713 24.3341C112.067 23.6431 112.727 23.4171 113.418 23.4171C114.383 23.4171 115.364 23.9961 115.38 25.0251V25.1541C115.042 24.9611 114.318 24.6721 113.434 24.6721C111.649 24.6721 109.831 25.6531 109.831 27.4861C109.831 29.1591 111.295 30.2361 112.935 30.2361C114.189 30.2361 114.881 29.6731 115.315 29.0131H115.379V29.9781H117.181V25.1851C117.182 22.9671 115.524 21.7291 113.386 21.7291ZM113.16 28.5801C112.55 28.5801 111.697 28.2741 111.697 27.5181C111.697 26.5531 112.759 26.1831 113.676 26.1831C114.495 26.1831 114.882 26.3601 115.38 26.6011C115.235 27.7601 114.238 28.5801 113.16 28.5801ZM123.743 22.0021L121.604 27.4221H121.54L119.32 22.0021H117.31L120.639 29.5771L118.741 33.7911H120.687L125.818 22.0021H123.743ZM106.937 30.0001H108.802V17.4991H106.937V30.0001Z" fill="black"/>
    <path d="M47.418 10.2429C47.418 11.0809 47.1701 11.7479 46.673 12.2459C46.109 12.8379 45.3731 13.1339 44.4691 13.1339C43.6031 13.1339 42.8661 12.8339 42.2611 12.2339C41.6551 11.6329 41.3521 10.8889 41.3521 10.0009C41.3521 9.11194 41.6551 8.36794 42.2611 7.76794C42.8661 7.16694 43.6031 6.86694 44.4691 6.86694C44.8991 6.86694 45.3101 6.95094 45.7001 7.11794C46.0911 7.28594 46.404 7.50894 46.6381 7.78794L46.111 8.31594C45.714 7.84094 45.167 7.60394 44.468 7.60394C43.836 7.60394 43.29 7.82594 42.829 8.26994C42.368 8.71394 42.1381 9.29094 42.1381 9.99994C42.1381 10.7089 42.368 11.2859 42.829 11.7299C43.29 12.1739 43.836 12.3959 44.468 12.3959C45.138 12.3959 45.6971 12.1729 46.1441 11.7259C46.4341 11.4349 46.602 11.0299 46.647 10.5109H44.468V9.78994H47.375C47.405 9.94694 47.418 10.0979 47.418 10.2429Z" fill="black"/>
    <path d="M52.0281 7.737H49.2961V9.639H51.7601V10.36H49.2961V12.262H52.0281V13H48.5251V7H52.0281V7.737Z" fill="black"/>
    <path d="M55.279 13H54.508V7.737H52.832V7H56.955V7.737H55.279V13Z" fill="black"/>
    <path d="M59.938 13V7H60.709V13H59.938Z" fill="black"/>
    <path d="M64.1281 13H63.3572V7.737H61.6812V7H65.8042V7.737H64.1281V13Z" fill="black"/>
    <path d="M73.6089 12.225C73.0189 12.831 72.2859 13.134 71.4089 13.134C70.5319 13.134 69.7989 12.831 69.2099 12.225C68.6199 11.619 68.3259 10.877 68.3259 9.99999C68.3259 9.12299 68.6199 8.38099 69.2099 7.77499C69.7989 7.16899 70.5319 6.86499 71.4089 6.86499C72.2809 6.86499 73.0129 7.16999 73.6049 7.77899C74.1969 8.38799 74.4929 9.12799 74.4929 9.99999C74.4929 10.877 74.1979 11.619 73.6089 12.225ZM69.7789 11.722C70.2229 12.172 70.7659 12.396 71.4089 12.396C72.0519 12.396 72.5959 12.171 73.0389 11.722C73.4829 11.272 73.7059 10.698 73.7059 9.99999C73.7059 9.30199 73.4829 8.72799 73.0389 8.27799C72.5959 7.82799 72.0519 7.60399 71.4089 7.60399C70.7659 7.60399 70.2229 7.82899 69.7789 8.27799C69.3359 8.72799 69.1129 9.30199 69.1129 9.99999C69.1129 10.698 69.3359 11.272 69.7789 11.722Z" fill="black"/>
    <path d="M75.5749 13V7H76.513L79.429 11.667H79.4619L79.429 10.511V7H80.1999V13H79.3949L76.344 8.106H76.3109L76.344 9.262V13H75.5749Z" fill="black"/>
    <path d="M47.418 10.2429C47.418 11.0809 47.1701 11.7479 46.673 12.2459C46.109 12.8379 45.3731 13.1339 44.4691 13.1339C43.6031 13.1339 42.8661 12.8339 42.2611 12.2339C41.6551 11.6329 41.3521 10.8889 41.3521 10.0009C41.3521 9.11194 41.6551 8.36794 42.2611 7.76794C42.8661 7.16694 43.6031 6.86694 44.4691 6.86694C44.8991 6.86694 45.3101 6.95094 45.7001 7.11794C46.0911 7.28594 46.404 7.50894 46.6381 7.78794L46.111 8.31594C45.714 7.84094 45.167 7.60394 44.468 7.60394C43.836 7.60394 43.29 7.82594 42.829 8.26994C42.368 8.71394 42.1381 9.29094 42.1381 9.99994C42.1381 10.7089 42.368 11.2859 42.829 11.7299C43.29 12.1739 43.836 12.3959 44.468 12.3959C45.138 12.3959 45.6971 12.1729 46.1441 11.7259C46.4341 11.4349 46.602 11.0299 46.647 10.5109H44.468V9.78994H47.375C47.405 9.94694 47.418 10.0979 47.418 10.2429Z" stroke="black" stroke-width="0.2" stroke-miterlimit="10"/>
    <path d="M52.0281 7.737H49.2961V9.639H51.7601V10.36H49.2961V12.262H52.0281V13H48.5251V7H52.0281V7.737Z" stroke="black" stroke-width="0.2" stroke-miterlimit="10"/>
    <path d="M55.279 13H54.508V7.737H52.832V7H56.955V7.737H55.279V13Z" stroke="black" stroke-width="0.2" stroke-miterlimit="10"/>
    <path d="M59.938 13V7H60.709V13H59.938Z" stroke="black" stroke-width="0.2" stroke-miterlimit="10"/>
    <path d="M64.1281 13H63.3572V7.737H61.6812V7H65.8042V7.737H64.1281V13Z" stroke="black" stroke-width="0.2" stroke-miterlimit="10"/>
    <path d="M73.6089 12.225C73.0189 12.831 72.2859 13.134 71.4089 13.134C70.5319 13.134 69.7989 12.831 69.2099 12.225C68.6199 11.619 68.3259 10.877 68.3259 9.99999C68.3259 9.12299 68.6199 8.38099 69.2099 7.77499C69.7989 7.16899 70.5319 6.86499 71.4089 6.86499C72.2809 6.86499 73.0129 7.16999 73.6049 7.77899C74.1969 8.38799 74.4929 9.12799 74.4929 9.99999C74.4929 10.877 74.1979 11.619 73.6089 12.225ZM69.7789 11.722C70.2229 12.172 70.7659 12.396 71.4089 12.396C72.0519 12.396 72.5959 12.171 73.0389 11.722C73.4829 11.272 73.7059 10.698 73.7059 9.99999C73.7059 9.30199 73.4829 8.72799 73.0389 8.27799C72.5959 7.82799 72.0519 7.60399 71.4089 7.60399C70.7659 7.60399 70.2229 7.82899 69.7789 8.27799C69.3359 8.72799 69.1129 9.30199 69.1129 9.99999C69.1129 10.698 69.3359 11.272 69.7789 11.722Z" stroke="black" stroke-width="0.2" stroke-miterlimit="10"/>
    <path d="M75.5749 13V7H76.513L79.429 11.667H79.4619L79.429 10.511V7H80.1999V13H79.3949L76.344 8.106H76.3109L76.344 9.262V13H75.5749Z" stroke="black" stroke-width="0.2" stroke-miterlimit="10"/>
    <path fill-rule="evenodd" clip-rule="evenodd" d="M25.8548 14.2324L14.3332 7.55066C13.8981 7.29006 13.3903 7.13966 12.8469 7.13966C11.7257 7.13966 10.7397 7.81894 10.2669 8.76853L10.3535 8.8551L20.7935 19.2928L25.8548 14.2324ZM9.97295 9.88871C9.97097 9.93104 9.96997 9.97356 9.96997 10.0162V29.9838C9.96997 30.0265 9.97097 30.069 9.97294 30.1112L20.0863 19.9999L9.97295 9.88871ZM10.2669 31.2314C10.7398 32.181 11.726 32.8603 12.8469 32.8603C13.3786 32.8603 13.8778 32.7166 14.3059 32.4642L14.3399 32.4443L25.8746 25.787L20.7935 20.7069L10.3535 31.1449L10.2669 31.2314ZM26.7713 25.2694L31.4684 22.5584C32.3707 22.0713 32.9832 21.1201 32.9832 20.0232C32.9832 18.9342 32.3789 17.9877 31.4856 17.499L31.4754 17.492L26.7499 14.7516L21.5006 19.9999L26.7713 25.2694Z" fill="black"/>
    <rect x="0.5" y="0.5" width="134" height="39" rx="4.5" stroke="black"/>
    <rect x="146.5" y="0.5" width="119" height="39" rx="6.5" fill="white"/>
    <path d="M227.526 19.2009V21.4919H226.09V22.9944H227.526V28.0994C227.526 29.8425 228.315 30.5398 230.298 30.5398C230.647 30.5398 230.979 30.4983 231.27 30.4485V28.9626C231.021 28.9875 230.863 29.0041 230.589 29.0041C229.701 29.0041 229.311 28.5891 229.311 27.6428V22.9944H231.27V21.4919H229.311V19.2009H227.526Z" fill="black"/>
    <path d="M236.323 30.6643C238.963 30.6643 240.582 28.8962 240.582 25.9661C240.582 23.0525 238.955 21.2761 236.323 21.2761C233.684 21.2761 232.057 23.0525 232.057 25.9661C232.057 28.8962 233.675 30.6643 236.323 30.6643ZM236.323 29.0789C234.771 29.0789 233.9 27.9416 233.9 25.9661C233.9 24.0071 234.771 22.8616 236.323 22.8616C237.867 22.8616 238.747 24.0071 238.747 25.9661C238.747 27.9333 237.867 29.0789 236.323 29.0789Z" fill="black"/>
    <path d="M241.967 30.49H243.751V25.1526C243.751 23.8826 244.706 23.0276 246.059 23.0276C246.374 23.0276 246.906 23.0857 247.055 23.1355V21.3757C246.864 21.3259 246.524 21.301 246.258 21.301C245.079 21.301 244.075 21.9485 243.818 22.8367H243.685V21.4504H241.967V30.49Z" fill="black"/>
    <path d="M251.486 22.7952C252.806 22.7952 253.669 23.7165 253.711 25.136H249.145C249.245 23.7248 250.166 22.7952 251.486 22.7952ZM253.703 28.0496C253.371 28.7551 252.632 29.1453 251.553 29.1453C250.125 29.1453 249.204 28.1409 249.145 26.5554V26.4558H255.529V25.8332C255.529 22.9944 254.01 21.2761 251.495 21.2761C248.946 21.2761 247.328 23.1106 247.328 25.9993C247.328 28.8879 248.913 30.6643 251.503 30.6643C253.57 30.6643 255.014 29.6682 255.421 28.0496H253.703Z" fill="black"/>
    <path d="M215.822 27.1518C215.96 29.3715 217.81 30.7911 220.563 30.7911C223.505 30.7911 225.346 29.3027 225.346 26.9281C225.346 25.0612 224.297 24.0287 221.75 23.4351L220.382 23.0996C218.765 22.721 218.111 22.2134 218.111 21.3272C218.111 20.2088 219.126 19.4775 220.649 19.4775C222.094 19.4775 223.092 20.1916 223.273 21.3358H225.149C225.037 19.2452 223.196 17.774 220.675 17.774C217.965 17.774 216.158 19.2452 216.158 21.4563C216.158 23.2802 217.182 24.3643 219.427 24.8891L221.027 25.2763C222.671 25.6634 223.393 26.2312 223.393 27.1776C223.393 28.2789 222.258 29.079 220.709 29.079C219.049 29.079 217.896 28.3305 217.732 27.1518H215.822Z" fill="black"/>
    <path d="M197.335 21.301C196.106 21.301 195.044 21.9153 194.496 22.9446H194.363V21.4504H192.645V33.4949H194.43V29.1204H194.571C195.044 30.0749 196.065 30.6394 197.352 30.6394C199.634 30.6394 201.087 28.8381 201.087 25.9661C201.087 23.094 199.634 21.301 197.335 21.301ZM196.829 29.0373C195.335 29.0373 194.397 27.8586 194.397 25.9744C194.397 24.0818 195.335 22.9031 196.837 22.9031C198.348 22.9031 199.252 24.0569 199.252 25.9661C199.252 27.8835 198.348 29.0373 196.829 29.0373Z" fill="black"/>
    <path d="M207.332 21.301C206.103 21.301 205.041 21.9153 204.493 22.9446H204.36V21.4504H202.642V33.4949H204.427V29.1204H204.568C205.041 30.0749 206.062 30.6394 207.348 30.6394C209.631 30.6394 211.084 28.8381 211.084 25.9661C211.084 23.094 209.631 21.301 207.332 21.301ZM206.825 29.0373C205.331 29.0373 204.393 27.8586 204.393 25.9744C204.393 24.0818 205.331 22.9031 206.834 22.9031C208.345 22.9031 209.249 24.0569 209.249 25.9661C209.249 27.8835 208.345 29.0373 206.825 29.0373Z" fill="black"/>
    <path d="M189.443 30.49H191.491L187.008 18.0751H184.935L180.452 30.49H182.431L183.575 27.1948H188.307L189.443 30.49ZM185.873 20.3292H186.019L187.817 25.5774H184.066L185.873 20.3292Z" fill="black"/>
    <path d="M181.651 8.71094V14.7H183.813C185.598 14.7 186.632 13.6001 186.632 11.6868C186.632 9.80249 185.59 8.71094 183.813 8.71094H181.651ZM182.581 9.55762H183.71C184.951 9.55762 185.685 10.3462 185.685 11.6992C185.685 13.073 184.963 13.8533 183.71 13.8533H182.581V9.55762Z" fill="black"/>
    <path d="M189.797 14.7871C191.117 14.7871 191.926 13.9031 191.926 12.438C191.926 10.9812 191.112 10.093 189.797 10.093C188.477 10.093 187.663 10.9812 187.663 12.438C187.663 13.9031 188.473 14.7871 189.797 14.7871ZM189.797 13.9944C189.021 13.9944 188.585 13.4258 188.585 12.438C188.585 11.4585 189.021 10.8857 189.797 10.8857C190.569 10.8857 191.009 11.4585 191.009 12.438C191.009 13.4216 190.569 13.9944 189.797 13.9944Z" fill="black"/>
    <path d="M198.818 10.1802H197.926L197.12 13.6292H197.05L196.12 10.1802H195.265L194.336 13.6292H194.269L193.46 10.1802H192.555L193.8 14.7H194.717L195.647 11.3713H195.718L196.651 14.7H197.577L198.818 10.1802Z" fill="black"/>
    <path d="M199.846 14.7H200.738V12.0562C200.738 11.3506 201.157 10.9106 201.817 10.9106C202.477 10.9106 202.792 11.2717 202.792 11.998V14.7H203.685V11.7739C203.685 10.699 203.129 10.093 202.12 10.093C201.439 10.093 200.991 10.396 200.771 10.8982H200.705V10.1802H199.846V14.7Z" fill="black"/>
    <path d="M205.09 14.7H205.982V8.41626H205.09V14.7Z" fill="black"/>
    <path d="M209.338 14.7871C210.658 14.7871 211.468 13.9031 211.468 12.438C211.468 10.9812 210.654 10.093 209.338 10.093C208.019 10.093 207.205 10.9812 207.205 12.438C207.205 13.9031 208.014 14.7871 209.338 14.7871ZM209.338 13.9944C208.562 13.9944 208.126 13.4258 208.126 12.438C208.126 11.4585 208.562 10.8857 209.338 10.8857C210.11 10.8857 210.55 11.4585 210.55 12.438C210.55 13.4216 210.11 13.9944 209.338 13.9944Z" fill="black"/>
    <path d="M214.126 14.0234C213.641 14.0234 213.288 13.7869 213.288 13.3801C213.288 12.9817 213.57 12.77 214.193 12.7285L215.297 12.658V13.0356C215.297 13.5959 214.799 14.0234 214.126 14.0234ZM213.898 14.7747C214.492 14.7747 214.985 14.5173 215.255 14.0649H215.326V14.7H216.185V11.6121C216.185 10.6575 215.546 10.093 214.413 10.093C213.387 10.093 212.657 10.5911 212.566 11.3672H213.429C213.529 11.0476 213.873 10.865 214.371 10.865C214.981 10.865 215.297 11.1348 215.297 11.6121V12.0022L214.072 12.0728C212.997 12.1392 212.391 12.6082 212.391 13.4216C212.391 14.2476 213.026 14.7747 213.898 14.7747Z" fill="black"/>
    <path d="M219.213 14.7747C219.836 14.7747 220.363 14.48 220.632 13.9861H220.703V14.7H221.558V8.41626H220.666V10.8982H220.599C220.354 10.4001 219.831 10.1055 219.213 10.1055C218.072 10.1055 217.337 11.0103 217.337 12.438C217.337 13.8699 218.063 14.7747 219.213 14.7747ZM219.466 10.9065C220.213 10.9065 220.682 11.5 220.682 12.4421C220.682 13.3884 220.217 13.9736 219.466 13.9736C218.711 13.9736 218.258 13.3967 218.258 12.438C218.258 11.4875 218.715 10.9065 219.466 10.9065Z" fill="black"/>
    <path d="M227.344 14.7871C228.664 14.7871 229.474 13.9031 229.474 12.438C229.474 10.9812 228.66 10.093 227.344 10.093C226.025 10.093 225.211 10.9812 225.211 12.438C225.211 13.9031 226.02 14.7871 227.344 14.7871ZM227.344 13.9944C226.568 13.9944 226.133 13.4258 226.133 12.438C226.133 11.4585 226.568 10.8857 227.344 10.8857C228.116 10.8857 228.556 11.4585 228.556 12.438C228.556 13.4216 228.116 13.9944 227.344 13.9944Z" fill="black"/>
    <path d="M230.655 14.7H231.547V12.0562C231.547 11.3506 231.966 10.9106 232.626 10.9106C233.286 10.9106 233.602 11.2717 233.602 11.998V14.7H234.494V11.7739C234.494 10.699 233.938 10.093 232.929 10.093C232.249 10.093 231.8 10.396 231.58 10.8982H231.514V10.1802H230.655V14.7Z" fill="black"/>
    <path d="M238.604 9.05542V10.2009H237.886V10.9521H238.604V13.5046C238.604 14.3762 238.998 14.7249 239.99 14.7249C240.164 14.7249 240.33 14.7041 240.475 14.6792V13.9363C240.351 13.9487 240.272 13.957 240.135 13.957C239.691 13.957 239.496 13.7495 239.496 13.2764V10.9521H240.475V10.2009H239.496V9.05542H238.604Z" fill="black"/>
    <path d="M241.673 14.7H242.566V12.0603C242.566 11.3755 242.972 10.9148 243.703 10.9148C244.334 10.9148 244.67 11.28 244.67 12.0022V14.7H245.562V11.7822C245.562 10.7073 244.969 10.0972 244.006 10.0972C243.325 10.0972 242.848 10.4001 242.628 10.9065H242.557V8.41626H241.673V14.7Z" fill="black"/>
    <path d="M248.781 10.8525C249.441 10.8525 249.873 11.3132 249.894 12.0229H247.611C247.661 11.3174 248.121 10.8525 248.781 10.8525ZM249.889 13.4797C249.723 13.8325 249.354 14.0276 248.814 14.0276C248.101 14.0276 247.64 13.5254 247.611 12.7327V12.6829H250.802V12.3716C250.802 10.9521 250.043 10.093 248.785 10.093C247.511 10.093 246.702 11.0103 246.702 12.4546C246.702 13.8989 247.495 14.7871 248.789 14.7871C249.823 14.7871 250.545 14.2891 250.748 13.4797H249.889Z" fill="black"/>
    <path d="M170.769 20.3008C170.791 18.6198 171.693 17.0292 173.126 16.1488C172.222 14.8584 170.709 14.0403 169.134 13.9911C167.455 13.8148 165.827 14.9959 164.971 14.9959C164.099 14.9959 162.782 14.0086 161.363 14.0378C159.514 14.0975 157.79 15.1489 156.89 16.7656C154.956 20.1141 156.399 25.0351 158.251 27.7417C159.178 29.0671 160.261 30.5475 161.679 30.495C163.066 30.4375 163.584 29.6105 165.258 29.6105C166.917 29.6105 167.403 30.495 168.849 30.4616C170.338 30.4375 171.275 29.1304 172.17 27.7925C172.836 26.8481 173.348 25.8044 173.688 24.7C171.939 23.9602 170.771 22.2 170.769 20.3008Z" fill="black"/>
    <path d="M168.037 12.2111C168.849 11.2369 169.249 9.98469 169.152 8.72046C167.912 8.85068 166.767 9.44324 165.944 10.3801C165.14 11.2954 164.721 12.5255 164.801 13.7415C166.041 13.7542 167.26 13.1777 168.037 12.2111Z" fill="black"/>
    <rect x="146.5" y="0.5" width="119" height="39" rx="6.5" stroke="black"/>
    </svg>
