<svg width="48" height="48" viewBox="0 0 48 48" fill="none" xmlns="http://www.w3.org/2000/svg">
<path d="M12.8576 4.82605C13.4023 4.2019 13.3379 3.25434 12.7138 2.70962C12.0896 2.16489 11.1421 2.22928 10.5973 2.85343L8.01372 5.81377C6.5482 7.49298 5.71974 9.63401 5.67326 11.8623L5.5599 17.2976C5.54263 18.1259 6.20005 18.8113 7.0283 18.8286C7.85655 18.8459 8.54198 18.1884 8.55925 17.3602L8.67261 11.9249C8.70441 10.4002 9.27125 8.93533 10.274 7.78639L12.8576 4.82605Z" fill="white"/>
<path fill-rule="evenodd" clip-rule="evenodd" d="M12.474 15.4016C12.7518 10.9601 16.435 7.50012 20.8851 7.50012H22V6.00013C22 4.89556 22.8954 4.00013 24 4.00013C25.1045 4.00013 26 4.89556 26 6.00013V7.50012H27.1148C31.5649 7.50012 35.2481 10.9601 35.5259 15.4016L35.9679 22.4685C36.1364 25.1629 37.041 27.7594 38.5831 29.9753C39.9765 31.9774 38.7361 34.7425 36.3142 35.0332L29.5 35.8509V38.0001C29.5 41.0377 27.0375 43.5001 24 43.5001C20.9624 43.5001 18.5 41.0377 18.5 38.0001V35.8509L11.6857 35.0332C9.26385 34.7426 8.02341 31.9774 9.41677 29.9753C10.9589 27.7594 11.8635 25.1629 12.032 22.4685L12.474 15.4016ZM20.8851 10.5001C18.0191 10.5001 15.6471 12.7285 15.4681 15.5889L15.0261 22.6558C14.8234 25.8981 13.7348 29.0225 11.8791 31.689C11.7784 31.8337 11.8681 32.0335 12.0431 32.0545L19.5185 32.9516C22.4954 33.3088 25.5045 33.3088 28.4814 32.9516L35.9568 32.0545C36.1318 32.0335 36.2215 31.8337 36.1208 31.689C34.2651 29.0225 33.1766 25.8981 32.9738 22.6558L32.5318 15.5889C32.3529 12.7285 29.9808 10.5001 27.1148 10.5001H20.8851ZM24 40.5001C22.6193 40.5001 21.5 39.3808 21.5 38.0001V36.5001H26.5V38.0001C26.5 39.3808 25.3807 40.5001 24 40.5001Z" fill="white"/>
<path d="M35.2862 2.70962C34.662 3.25434 34.5976 4.2019 35.1423 4.82605L37.726 7.78639C38.7287 8.93533 39.2955 10.4002 39.3273 11.9249L39.4407 17.3602C39.458 18.1884 40.1434 18.8459 40.9716 18.8286C41.7999 18.8113 42.4573 18.1259 42.44 17.2976L42.3267 11.8623C42.2802 9.63401 41.4517 7.49298 39.9862 5.81377L37.4026 2.85343C36.8579 2.22928 35.9103 2.16489 35.2862 2.70962Z" fill="white"/>
</svg>
